<?xml version="1.0" standalone="no"?>
<!DOCTYPE svg PUBLIC "-//W3C//DTD SVG 20010904//EN"
 "http://www.w3.org/TR/2001/REC-SVG-20010904/DTD/svg10.dtd">
<svg version="1.0" xmlns="http://www.w3.org/2000/svg"
 width="532.000000pt" height="532.000000pt" viewBox="0 0 532.000000 532.000000"
 preserveAspectRatio="xMidYMid meet">
<metadata>
Created by potrace 1.11, written by Peter Selinger 2001-2013
</metadata>
<g transform="translate(0.000000,532.000000) scale(0.100000,-0.100000)"
fill="#000000" stroke="none">
<path d="M2420 5300 c-25 -4 -81 -13 -125 -19 -239 -34 -494 -115 -728 -232
-245 -123 -446 -269 -653 -474 -248 -246 -427 -508 -572 -835 -30 -68 -100
-264 -112 -312 -6 -24 -12 -47 -14 -53 -14 -48 -26 -94 -30 -115 -3 -14 -10
-50 -16 -80 -34 -170 -45 -303 -45 -530 0 -259 14 -387 69 -635 54 -243 188
-562 332 -796 142 -229 376 -496 579 -660 185 -149 440 -299 651 -383 86 -34
261 -91 308 -100 12 -3 52 -12 89 -21 38 -9 85 -18 105 -21 217 -28 265 -32
457 -29 116 1 217 5 225 8 8 4 35 8 60 11 240 24 564 127 819 262 228 121 423
265 617 459 239 239 412 492 551 806 68 154 144 381 167 499 36 187 38 194 54
335 14 126 7 522 -12 635 -3 14 -10 59 -16 100 -7 41 -19 104 -27 140 -8 36
-16 72 -18 80 -13 57 -61 204 -99 302 -103 268 -263 542 -440 753 -113 135
-336 344 -467 437 -13 10 -40 29 -59 43 -19 14 -43 28 -52 31 -10 4 -18 10
-18 15 0 5 -4 9 -9 9 -5 0 -38 17 -72 39 -91 54 -299 153 -399 189 -174 63
-351 106 -565 137 -61 9 -484 13 -535 5z"/>
</g>
</svg>
